<svg width="48" height="48" viewBox="0 0 48 48" fill="none" xmlns="http://www.w3.org/2000/svg">
<path d="M24 44C22.8667 44 21.9083 43.6084 21.125 42.825C20.3417 42.0417 19.95 41.0834 19.95 39.95H28.05C28.05 41.0834 27.6583 42.0417 26.875 42.825C26.0917 43.6084 25.1333 44 24 44ZM15.9 36.85V33.85H32.1V36.85H15.9ZM16.15 30.8C13.95 29.3667 12.2083 27.575 10.925 25.425C9.64167 23.275 9 20.85 9 18.15C9 14.0834 10.4833 10.5667 13.45 7.60002C16.4167 4.63336 19.9333 3.15002 24 3.15002C28.0667 3.15002 31.5833 4.63336 34.55 7.60002C37.5167 10.5667 39 14.0834 39 18.15C39 20.85 38.3667 23.275 37.1 25.425C35.8333 27.575 34.0833 29.3667 31.85 30.8H16.15Z" fill="white"/>
</svg>
