<svg width="48" height="48" viewBox="0 0 48 48" fill="none" xmlns="http://www.w3.org/2000/svg">
<path d="M18.9 35.1C18.7 35.1 18.5167 35.0667 18.35 35C18.1833 34.9333 18.0167 34.8167 17.85 34.65L8.80001 25.6C8.50001 25.3 8.35001 24.9333 8.35001 24.5C8.35001 24.0667 8.50001 23.7 8.80001 23.4C9.10001 23.1 9.45001 22.95 9.85001 22.95C10.25 22.95 10.6 23.1 10.9 23.4L18.9 31.4L37.05 13.25C37.35 12.95 37.7083 12.8 38.125 12.8C38.5417 12.8 38.9 12.95 39.2 13.25C39.5 13.55 39.65 13.9083 39.65 14.325C39.65 14.7417 39.5 15.1 39.2 15.4L19.95 34.65C19.7833 34.8167 19.6167 34.9333 19.45 35C19.2833 35.0667 19.1 35.1 18.9 35.1Z" fill="black"/>
</svg>
